<svg width="151" height="26" viewBox="0 0 151 26" fill="none" xmlns="http://www.w3.org/2000/svg">
<path d="M0.570312 0.984375H5.61523V9.10547L12.5879 0.984375H18.4668L10.8516 9.80273L18.7539 21H12.8613L7.625 13.4121L5.61523 15.709V21H0.570312V0.984375ZM25.3438 18.0879C26.0547 18.0879 26.6152 17.9512 27.0254 17.6777C27.4447 17.4043 27.7318 17.0671 27.8867 16.666H32.3438C31.9427 18.1608 31.1589 19.332 29.9922 20.1797C28.8346 21.0273 27.3125 21.4512 25.4258 21.4512C23.0742 21.4512 21.2103 20.7493 19.834 19.3457C18.4668 17.9421 17.7832 16.1055 17.7832 13.8359C17.7832 11.612 18.4531 9.78906 19.793 8.36719C21.1328 6.9362 22.9238 6.2207 25.166 6.2207C26.7611 6.2207 28.1191 6.5944 29.2402 7.3418C30.3704 8.08919 31.2044 9.11458 31.7422 10.418C32.2891 11.7214 32.5625 13.2526 32.5625 15.0117H22.2539C22.2539 15.9688 22.5547 16.7207 23.1562 17.2676C23.7669 17.8145 24.4961 18.0879 25.3438 18.0879ZM27.2852 10.0762C26.7565 9.55664 26.0501 9.29688 25.166 9.29688C24.2819 9.29688 23.5755 9.55664 23.0469 10.0762C22.5182 10.5866 22.2539 11.3249 22.2539 12.291H28.0781C28.0781 11.3249 27.8138 10.5866 27.2852 10.0762ZM43.3359 6.2207C44.7487 6.2207 45.8743 6.66732 46.7129 7.56055C47.5605 8.44466 47.9844 9.69336 47.9844 11.3066V21H43.5V12.7422C43.5 11.694 43.3177 10.9512 42.9531 10.5137C42.5977 10.0762 42.0326 9.85742 41.2578 9.85742C39.4714 9.85742 38.5781 10.8099 38.5781 12.7148V21H34.0938V6.6582H38.5781V8.73633H38.6328C39.5898 7.05924 41.1576 6.2207 43.3359 6.2207ZM53.918 4.42969C53.4987 4.77604 52.9609 4.94922 52.3047 4.94922C51.6484 4.94922 51.1107 4.77604 50.6914 4.42969C50.2721 4.08333 50.0625 3.5957 50.0625 2.9668C50.0625 2.34701 50.2721 1.86393 50.6914 1.51758C51.1107 1.16211 51.6484 0.984375 52.3047 0.984375C52.9609 0.984375 53.4987 1.16211 53.918 1.51758C54.3372 1.86393 54.5469 2.34701 54.5469 2.9668C54.5469 3.5957 54.3372 4.08333 53.918 4.42969ZM50.0625 6.6582H54.5469V21H50.0625V6.6582ZM56.625 0.984375H61.1094V21H56.625V0.984375ZM80.1543 16.8301H73.291L72.0059 21H66.9609L74.207 0.984375H79.252L86.4707 21H81.4395L80.1543 16.8301ZM74.4395 12.9883H79.0332L76.7637 5.60547H76.709L74.4395 12.9883ZM84.7344 6.6582H89.2188L92.1309 16.0098H92.1855L95.0977 6.6582H99.5684L94.6191 21H89.6836L84.7344 6.6582ZM108.469 10.6367C108.469 9.74349 107.863 9.29688 106.65 9.29688C105.839 9.29688 105.229 9.45638 104.818 9.77539C104.417 10.0944 104.18 10.5957 104.107 11.2793H99.9102C99.9466 10.5684 100.102 9.91667 100.375 9.32422C100.648 8.73177 101.049 8.19857 101.578 7.72461C102.107 7.25065 102.804 6.88151 103.67 6.61719C104.545 6.35286 105.548 6.2207 106.678 6.2207C108.774 6.2207 110.342 6.6901 111.381 7.62891C112.429 8.55859 112.953 10.1126 112.953 12.291V18.8672C112.953 19.5781 113.231 19.9336 113.787 19.9336V21C112.994 21.3008 112.128 21.4512 111.189 21.4512C110.26 21.4512 109.599 21.2689 109.207 20.9043C108.815 20.5306 108.619 20.0566 108.619 19.4824H108.564C108.072 20.0475 107.421 20.5169 106.609 20.8906C105.807 21.2643 104.955 21.4512 104.053 21.4512C102.576 21.4512 101.423 21.0729 100.594 20.3164C99.7643 19.5599 99.3496 18.5664 99.3496 17.3359C99.3496 15.9688 99.8099 14.9069 100.73 14.1504C101.66 13.3939 103.018 12.8379 104.805 12.4824C106.126 12.2181 106.979 12.013 107.361 11.8672C108.1 11.5664 108.469 11.1562 108.469 10.6367ZM105.611 18.3613C106.523 18.3613 107.225 18.1107 107.717 17.6094C108.218 17.1081 108.469 16.4928 108.469 15.7637V14.0273C107.876 14.2552 107.111 14.4694 106.172 14.6699C104.604 15.0254 103.82 15.6999 103.82 16.6934C103.82 17.8053 104.417 18.3613 105.611 18.3613ZM119.352 4.42969C118.932 4.77604 118.395 4.94922 117.738 4.94922C117.082 4.94922 116.544 4.77604 116.125 4.42969C115.706 4.08333 115.496 3.5957 115.496 2.9668C115.496 2.34701 115.706 1.86393 116.125 1.51758C116.544 1.16211 117.082 0.984375 117.738 0.984375C118.395 0.984375 118.932 1.16211 119.352 1.51758C119.771 1.86393 119.98 2.34701 119.98 2.9668C119.98 3.5957 119.771 4.08333 119.352 4.42969ZM115.496 6.6582H119.98V21H115.496V6.6582ZM135.977 6.6582L131.096 21.2734C130.485 23.0872 129.783 24.3177 128.99 24.9648C128.197 25.6211 127.035 25.9492 125.504 25.9492C124.72 25.9492 123.886 25.8581 123.002 25.6758V22.3125H123.057C124.415 22.6133 125.322 22.4173 125.777 21.7246C126.16 21.1413 126.124 20.207 125.668 18.9219L120.992 6.6582H125.477L128.717 16.0781H128.771L131.492 6.6582H135.977ZM144.863 10.6367C144.863 9.74349 144.257 9.29688 143.045 9.29688C142.234 9.29688 141.623 9.45638 141.213 9.77539C140.812 10.0944 140.575 10.5957 140.502 11.2793H136.305C136.341 10.5684 136.496 9.91667 136.77 9.32422C137.043 8.73177 137.444 8.19857 137.973 7.72461C138.501 7.25065 139.199 6.88151 140.064 6.61719C140.939 6.35286 141.942 6.2207 143.072 6.2207C145.169 6.2207 146.736 6.6901 147.775 7.62891C148.824 8.55859 149.348 10.1126 149.348 12.291V18.8672C149.348 19.5781 149.626 19.9336 150.182 19.9336V21C149.389 21.3008 148.523 21.4512 147.584 21.4512C146.654 21.4512 145.993 21.2689 145.602 20.9043C145.21 20.5306 145.014 20.0566 145.014 19.4824H144.959C144.467 20.0475 143.815 20.5169 143.004 20.8906C142.202 21.2643 141.35 21.4512 140.447 21.4512C138.971 21.4512 137.818 21.0729 136.988 20.3164C136.159 19.5599 135.744 18.5664 135.744 17.3359C135.744 15.9688 136.204 14.9069 137.125 14.1504C138.055 13.3939 139.413 12.8379 141.199 12.4824C142.521 12.2181 143.373 12.013 143.756 11.8672C144.494 11.5664 144.863 11.1562 144.863 10.6367ZM142.006 18.3613C142.917 18.3613 143.619 18.1107 144.111 17.6094C144.613 17.1081 144.863 16.4928 144.863 15.7637V14.0273C144.271 14.2552 143.505 14.4694 142.566 14.6699C140.999 15.0254 140.215 15.6999 140.215 16.6934C140.215 17.8053 140.812 18.3613 142.006 18.3613Z" fill="black"/>
</svg>
