<svg width="100" height="100" viewBox="0 0 100 100" fill="none" xmlns="http://www.w3.org/2000/svg">
<g clip-path="url(#clip0_26_22)">
<rect width="100" height="100" fill="black"/>
<circle cx="25" cy="25" r="23" fill="white"/>
<circle cx="75" cy="75" r="23" fill="white"/>
<path d="M0 52H48V75C48 88.8071 36.8071 100 23 100H0V52Z" fill="white"/>
<path d="M100 48L52 48L52 25C52 11.1929 63.1929 0 77 0L100 0L100 48Z" fill="white"/>
<path d="M9.17383 2.53516H20.8853V21.3877L37.0718 2.53516H50.7192L33.041 23.0063L51.3857 49H37.7065L25.5508 31.3853L20.8853 36.7173V49H9.17383V2.53516Z" fill="black"/>
<path d="M82.564 88.3198H66.6313L63.6479 98H51.9365L68.7578 51.5352H80.4692L97.2271 98H85.5474L82.564 88.3198ZM69.2974 79.4014H79.9614L74.6929 62.2627H74.5659L69.2974 79.4014Z" fill="black"/>
</g>
<defs>
<clipPath id="clip0_26_22">
<rect width="100" height="100" fill="white"/>
</clipPath>
</defs>
</svg>
